<?xml version="1.0" encoding="UTF-8" standalone="no"?>
<!DOCTYPE svg PUBLIC "-//W3C//DTD SVG 1.1//EN" "http://www.w3.org/Graphics/SVG/1.1/DTD/svg11.dtd">
<svg width="100%" height="100%" viewBox="0 0 1908 1079" version="1.1" xmlns="http://www.w3.org/2000/svg" xmlns:xlink="http://www.w3.org/1999/xlink" xml:space="preserve" xmlns:serif="http://www.serif.com/" style="fill-rule:evenodd;clip-rule:evenodd;stroke-linejoin:round;stroke-miterlimit:2;">
    <g transform="matrix(1,0,0,1,-6296,-4869)">
        <g id="primary-logo" serif:id="primary logo" transform="matrix(1,0,0,1,6288.379013,-2488.005546)">
            <rect x="7.621" y="7357.006" width="1907.159" height="1079" style="fill:none;"/>
            <g transform="matrix(1.792143,0,0,1.792143,-272.142894,584.648411)">
                <g transform="matrix(1.273047,0,0,1.273047,-172.367796,-2595.837046)">
                    <g transform="matrix(2.045612,0,0,2.049523,-16612.232251,-2732.79969)">
                        <path d="M8471.325,3941.539C8471.038,3941.834 8470.643,3942 8470.231,3942C8463.706,3942 8409.623,3942 8399.791,3942C8399.386,3942 8398.997,3941.839 8398.711,3941.552C8398.425,3941.266 8398.265,3940.877 8398.266,3940.473C8398.298,3931.108 8398.467,3881.661 8398.487,3875.839C8398.488,3875.48 8398.63,3875.136 8398.883,3874.88C8402.341,3871.383 8427.472,3845.966 8430.979,3842.419C8431.239,3842.157 8431.594,3842.01 8431.963,3842.011C8436.119,3842.029 8461.384,3842.137 8464.977,3842.153C8465.212,3842.154 8465.402,3842.344 8465.402,3842.579C8465.402,3846.343 8465.402,3873.888 8465.402,3873.888L8430.309,3874.58L8430.309,3910.662L8470.205,3911.362C8470.205,3911.362 8470.664,3900.322 8470.748,3898.311C8470.755,3898.136 8470.899,3897.998 8471.074,3897.998C8473.934,3897.998 8495.467,3897.998 8498.616,3897.998C8498.718,3897.998 8498.816,3898.038 8498.888,3898.11C8498.96,3898.182 8499,3898.28 8499,3898.381C8499,3900.435 8499,3910.132 8499,3912.569C8499,3912.926 8498.861,3913.269 8498.611,3913.525C8495.498,3916.721 8474.658,3938.117 8471.325,3941.539Z" style="fill:rgb(132,132,132);"/>
                    </g>
                    <g transform="matrix(2.045612,0,0,2.049523,-16601.035753,-2732.79969)">
                        <path d="M8470.573,3941.553C8470.287,3941.839 8469.898,3942 8469.493,3942C8463.047,3942 8409.308,3942 8399.525,3942C8398.683,3942 8398,3941.318 8398,3940.478L8398,3876.441C8398,3876.078 8398.144,3875.73 8398.401,3875.473C8401.95,3871.924 8427.905,3845.969 8431.469,3842.405C8431.728,3842.146 8432.081,3842.001 8432.448,3842.003C8436.556,3842.022 8461.442,3842.136 8465.008,3842.153C8465.243,3842.154 8465.433,3842.345 8465.433,3842.579C8465.43,3846.158 8465.405,3871.227 8465.402,3874.277C8465.402,3874.444 8465.266,3874.58 8465.098,3874.58C8461.888,3874.58 8434.262,3874.58 8430.18,3874.58C8430.047,3874.58 8429.919,3874.633 8429.825,3874.727C8429.731,3874.821 8429.678,3874.949 8429.678,3875.082C8429.678,3879.111 8429.678,3906.132 8429.678,3910.16C8429.678,3910.293 8429.731,3910.421 8429.825,3910.515C8429.919,3910.609 8430.047,3910.662 8430.18,3910.662C8434.144,3910.662 8460.294,3910.662 8464.257,3910.662C8464.391,3910.662 8464.519,3910.609 8464.613,3910.515C8464.707,3910.421 8464.76,3910.293 8464.76,3910.16C8464.76,3908.103 8464.76,3900.336 8464.76,3898.425C8464.76,3898.312 8464.805,3898.203 8464.886,3898.123C8464.966,3898.043 8465.075,3897.998 8465.188,3897.998C8468.867,3897.998 8495.122,3897.998 8498.616,3897.998C8498.718,3897.998 8498.816,3898.038 8498.888,3898.11C8498.96,3898.182 8499,3898.28 8499,3898.381C8499,3900.432 8499,3910.104 8499,3912.559C8499,3912.922 8498.856,3913.27 8498.599,3913.527C8495.39,3916.736 8473.948,3938.178 8470.573,3941.553Z"/>
                    </g>
                    <g transform="matrix(2.56496,0,0,2.049523,-21616.689424,-2787.496094)">
                        <path d="M8702,3903.456C8702,3903.456 8683.215,3903.392 8680.362,3903.382C8680.266,3903.382 8680.174,3903.429 8680.106,3903.514C8680.038,3903.599 8680,3903.714 8680,3903.834C8680,3907.42 8680,3931.203 8680,3934.785C8680,3934.905 8680.038,3935.019 8680.106,3935.104C8680.173,3935.189 8680.265,3935.236 8680.361,3935.236C8682.823,3935.236 8697.142,3935.236 8699.625,3935.236C8699.721,3935.236 8699.814,3935.188 8699.882,3935.101C8699.949,3935.015 8699.987,3934.898 8699.985,3934.777C8699.955,3932.505 8699.824,3922.559 8699.824,3922.559L8733.284,3922.559C8733.365,3922.559 8733.443,3922.519 8733.5,3922.447C8733.558,3922.375 8733.59,3922.277 8733.59,3922.176C8733.59,3917.839 8733.59,3878.005 8733.59,3870.07C8733.59,3869.313 8733.1,3868.699 8732.494,3868.699C8728.042,3868.698 8711.415,3868.696 8708.824,3868.696C8708.734,3868.696 8708.647,3868.741 8708.583,3868.821C8708.52,3868.901 8708.484,3869.009 8708.484,3869.122C8708.484,3873.087 8708.484,3903.381 8708.484,3903.381L8702,3903.456Z" style="fill:rgb(132,132,132);"/>
                    </g>
                    <g transform="matrix(2.56496,0,0,2.049523,-21608.079181,-2787.496094)">
                        <path d="M8702,3903.381C8702,3903.381 8682.275,3903.388 8679.351,3903.389C8679.152,3903.389 8678.99,3903.591 8678.99,3903.84C8678.99,3907.421 8678.989,3931.203 8678.989,3934.785C8678.989,3934.905 8679.027,3935.019 8679.095,3935.104C8679.162,3935.189 8679.254,3935.236 8679.35,3935.236C8681.985,3935.236 8698.242,3935.236 8700.877,3935.236C8700.973,3935.236 8701.064,3935.189 8701.132,3935.104C8701.2,3935.019 8701.238,3934.905 8701.238,3934.785C8701.238,3932.799 8701.238,3924.855 8701.238,3922.985C8701.238,3922.766 8701.379,3922.589 8701.554,3922.588C8704.496,3922.585 8727.032,3922.559 8729.927,3922.556C8730.096,3922.555 8730.233,3922.384 8730.233,3922.172C8730.233,3917.838 8730.233,3878.003 8730.233,3870.067C8730.233,3869.703 8730.118,3869.354 8729.912,3869.097C8729.707,3868.84 8729.428,3868.696 8729.137,3868.696C8725.038,3868.696 8710.721,3868.699 8708.328,3868.699C8708.14,3868.699 8707.988,3868.89 8707.988,3869.125C8707.988,3873.089 8707.988,3903.381 8707.988,3903.381L8702,3903.381Z"/>
                    </g>
                </g>
                <g transform="matrix(0.813233,-0.581939,0.581939,0.813233,-6613.910542,1488.475198)">
                    <path d="M4597.163,6361.218L4583.941,6379.695L4411.083,6396.243L4386.544,6378.683L4597.163,6361.218Z" style="fill:white;fill-opacity:0.32;"/>
                </g>
                <g transform="matrix(1.174252,-1.104199,0.685042,0.728503,-9551.191304,4769.090783)">
                    <path d="M5009.129,6562.666L5006.571,6567.05L4944.928,6563.063L4941.985,6558.602L5009.129,6562.666Z" style="fill:white;fill-opacity:0.35;"/>
                </g>
                <g transform="matrix(0.813233,-0.581939,0.581939,0.813233,-6795.781855,1581.073607)">
                    <path d="M4597.291,6362.539L4584.692,6380.146L4476.73,6390.073L4490.01,6371.565L4597.291,6362.539Z" style="fill:white;fill-opacity:0.32;"/>
                </g>
                <g transform="matrix(1.174252,-1.104199,0.685042,0.728503,-9732.583623,4860.602301)">
                    <path d="M5009.421,6562.739L5006.724,6567.362L4939.382,6563.063L4941.932,6558.692L5009.421,6562.739Z" style="fill:white;fill-opacity:0.35;"/>
                </g>
            </g>
        </g>
    </g>
</svg>
