<?xml version="1.0" encoding="UTF-8" standalone="no"?>
<!DOCTYPE svg PUBLIC "-//W3C//DTD SVG 1.1//EN" "http://www.w3.org/Graphics/SVG/1.1/DTD/svg11.dtd">
<svg width="100%" height="100%" viewBox="0 0 1908 1079" version="1.1" xmlns="http://www.w3.org/2000/svg" xmlns:xlink="http://www.w3.org/1999/xlink" xml:space="preserve" xmlns:serif="http://www.serif.com/" style="fill-rule:evenodd;clip-rule:evenodd;stroke-linejoin:round;stroke-miterlimit:2;">
    <g transform="matrix(1,0,0,1,-6296,-7231.005546)">
        <g id="Artboard20" transform="matrix(1,0,0,1,6295.379013,1250.005546)">
            <rect x="0.621" y="5981" width="1907.159" height="1079" style="fill:rgb(0,47,167);"/>
            <g transform="matrix(1.889489,0,0,1.889489,-4428.426125,-1120.575672)">
                <g transform="matrix(2.604096,0,0,2.609075,-19159.452078,-6110.52818)">
                    <path d="M8471.302,3941.563C8471.029,3941.842 8470.655,3942 8470.264,3942C8463.875,3942 8409.347,3942 8399.712,3942C8399.328,3942 8398.959,3941.847 8398.688,3941.575C8398.416,3941.304 8398.264,3940.935 8398.266,3940.551C8398.297,3931.373 8398.468,3881.511 8398.487,3875.81C8398.488,3875.469 8398.623,3875.143 8398.863,3874.901C8402.248,3871.477 8427.567,3845.871 8431,3842.398C8431.246,3842.149 8431.583,3842.01 8431.933,3842.011C8436.005,3842.029 8461.479,3842.138 8464.999,3842.153C8465.222,3842.154 8465.402,3842.335 8465.402,3842.557C8465.402,3846.235 8465.402,3873.888 8465.402,3873.888L8430.309,3874.58L8430.309,3910.662L8470.205,3911.362C8470.205,3911.362 8470.667,3900.263 8470.749,3898.295C8470.756,3898.129 8470.892,3897.998 8471.058,3897.998C8473.858,3897.998 8495.552,3897.998 8498.636,3897.998C8498.837,3897.998 8499,3898.161 8499,3898.362C8499,3900.38 8499,3910.202 8499,3912.598C8499,3912.936 8498.868,3913.262 8498.631,3913.504C8495.582,3916.635 8474.567,3938.21 8471.302,3941.563Z" style="fill:rgb(132,132,132);"/>
                </g>
                <g transform="matrix(2.604096,0,0,2.609075,-19145.198759,-6110.52818)">
                    <path d="M8470.55,3941.576C8470.278,3941.848 8469.91,3942 8469.526,3942C8463.214,3942 8409.033,3942 8399.447,3942C8398.648,3942 8398,3941.354 8398,3940.556C8398,3931.445 8398,3882.117 8398,3876.412C8398,3876.068 8398.137,3875.737 8398.381,3875.493C8401.854,3872.02 8428.001,3845.873 8431.49,3842.384C8431.736,3842.138 8432.07,3842.001 8432.418,3842.003C8436.443,3842.021 8461.537,3842.137 8465.03,3842.153C8465.253,3842.154 8465.433,3842.335 8465.433,3842.557C8465.43,3846.06 8465.405,3871.308 8465.402,3874.292C8465.402,3874.451 8465.273,3874.58 8465.114,3874.58L8430.155,3874.58C8430.028,3874.58 8429.907,3874.63 8429.817,3874.72C8429.728,3874.809 8429.678,3874.93 8429.678,3875.056C8429.678,3879.002 8429.678,3906.24 8429.678,3910.186C8429.678,3910.312 8429.728,3910.434 8429.817,3910.523C8429.907,3910.612 8430.028,3910.662 8430.155,3910.662C8434.037,3910.662 8460.401,3910.662 8464.283,3910.662C8464.41,3910.662 8464.531,3910.612 8464.621,3910.523C8464.71,3910.434 8464.76,3910.312 8464.76,3910.186C8464.76,3908.161 8464.76,3900.284 8464.76,3898.403C8464.76,3898.296 8464.803,3898.193 8464.879,3898.117C8464.955,3898.041 8465.059,3897.998 8465.166,3897.998C8468.768,3897.998 8495.215,3897.998 8498.636,3897.998C8498.837,3897.998 8499,3898.161 8499,3898.362C8499,3900.377 8499,3910.174 8499,3912.588C8499,3912.932 8498.863,3913.263 8498.619,3913.507C8495.476,3916.65 8473.856,3938.269 8470.55,3941.576Z" style="fill:white;"/>
                </g>
                <g transform="matrix(3.265235,0,0,2.609075,-25530.204627,-6180.157562)">
                    <path d="M8702,3903.456C8702,3903.456 8683.133,3903.392 8680.343,3903.382C8680.252,3903.382 8680.165,3903.427 8680.101,3903.507C8680.036,3903.588 8680,3903.697 8680,3903.81L8680,3934.808C8680,3934.922 8680.036,3935.031 8680.1,3935.111C8680.164,3935.191 8680.251,3935.236 8680.342,3935.236L8699.643,3935.236C8699.735,3935.236 8699.823,3935.19 8699.887,3935.108C8699.952,3935.027 8699.987,3934.916 8699.985,3934.801C8699.956,3932.574 8699.824,3922.559 8699.824,3922.559L8733.3,3922.559C8733.46,3922.559 8733.59,3922.396 8733.59,3922.196C8733.59,3917.949 8733.59,3877.778 8733.59,3870C8733.59,3869.281 8733.125,3868.699 8732.551,3868.699C8728.174,3868.699 8711.35,3868.696 8708.807,3868.696C8708.721,3868.696 8708.639,3868.739 8708.578,3868.814C8708.518,3868.89 8708.484,3868.993 8708.484,3869.1C8708.484,3872.973 8708.484,3903.381 8708.484,3903.381L8702,3903.456Z" style="fill:rgb(132,132,132);"/>
                </g>
                <g transform="matrix(3.265235,0,0,2.609075,-25519.243652,-6180.157562)">
                    <path d="M8702,3903.381C8702,3903.381 8682.19,3903.388 8679.332,3903.389C8679.144,3903.389 8678.99,3903.581 8678.99,3903.817C8678.99,3907.325 8678.989,3931.3 8678.989,3934.808C8678.989,3934.922 8679.025,3935.031 8679.089,3935.111C8679.153,3935.191 8679.24,3935.236 8679.331,3935.236C8681.913,3935.236 8698.313,3935.236 8700.895,3935.236C8700.986,3935.236 8701.073,3935.191 8701.137,3935.111C8701.201,3935.031 8701.238,3934.922 8701.238,3934.808L8701.238,3922.964C8701.238,3922.757 8701.372,3922.589 8701.538,3922.589C8704.417,3922.585 8727.11,3922.559 8729.943,3922.556C8730.103,3922.555 8730.233,3922.393 8730.233,3922.192C8730.233,3917.947 8730.233,3877.775 8730.233,3869.996C8730.233,3869.651 8730.124,3869.32 8729.929,3869.076C8729.734,3868.833 8729.469,3868.696 8729.194,3868.696C8725.162,3868.696 8710.661,3868.699 8708.31,3868.699C8708.132,3868.699 8707.988,3868.88 8707.988,3869.103C8707.988,3872.976 8707.988,3903.381 8707.988,3903.381L8702,3903.381Z" style="fill:white;"/>
                </g>
                <g transform="matrix(0.813233,-0.581939,0.581939,0.813233,-4453.387114,1452.514486)">
                    <path d="M4597.163,6361.218L4583.941,6379.695L4411.083,6396.243L4386.544,6378.683L4597.163,6361.218Z" style="fill:rgb(10,22,40);fill-opacity:0.32;"/>
                </g>
                <g transform="matrix(1.174252,-1.104199,0.685042,0.728503,-7390.667877,4733.130071)">
                    <path d="M5009.129,6562.666L5006.571,6567.05L4944.876,6563.153L4941.932,6558.692L5009.129,6562.666Z" style="fill:rgb(10,22,40);fill-opacity:0.35;"/>
                </g>
                <g transform="matrix(0.813233,-0.581939,0.581939,0.813233,-4635.25191,1545.113964)">
                    <path d="M4597.911,6362.481L4585.311,6380.088L4476.73,6390.073L4490.01,6371.565L4597.911,6362.481Z" style="fill-opacity:0.32;"/>
                </g>
                <g transform="matrix(1.174252,-1.104199,0.685042,0.728503,-7572.053678,4824.642659)">
                    <path d="M5009.807,6562.764L5007.11,6567.387L4939.382,6563.063L4941.932,6558.692L5009.807,6562.764Z" style="fill-opacity:0.35;"/>
                </g>
            </g>
        </g>
    </g>
</svg>
