<?xml version="1.0" encoding="UTF-8" standalone="no"?>
<!DOCTYPE svg PUBLIC "-//W3C//DTD SVG 1.1//EN" "http://www.w3.org/Graphics/SVG/1.1/DTD/svg11.dtd">
<svg width="100%" height="100%" viewBox="0 0 1908 1079" version="1.1" xmlns="http://www.w3.org/2000/svg" xmlns:xlink="http://www.w3.org/1999/xlink" xml:space="preserve" xmlns:serif="http://www.serif.com/" style="fill-rule:evenodd;clip-rule:evenodd;stroke-linejoin:round;stroke-miterlimit:2;">
    <g transform="matrix(1,0,0,1,-4146,-4856.005546)">
        <g id="secondary-logo" serif:id="secondary logo" transform="matrix(1,0,0,1,4152.379013,1376.005546)">
            <rect x="-6.379" y="3480" width="1907.159" height="1079" style="fill:none;"/>
            <g>
                <g transform="matrix(1.273047,0,0,1.273047,-172.367796,-2595.837046)">
                    <g transform="matrix(2.045612,0,0,2.049523,-16612.232251,-2732.79969)">
                        <path d="M8471.681,3941.174C8471.166,3941.702 8470.459,3942 8469.721,3942C8461.606,3942 8413.119,3942 8401.003,3942C8400.277,3942 8399.58,3941.711 8399.067,3941.198C8398.555,3940.684 8398.268,3939.988 8398.27,3939.263C8398.31,3927.75 8398.461,3883.517 8398.485,3876.282C8398.488,3875.639 8398.742,3875.022 8399.195,3874.565C8403.51,3870.2 8426.283,3847.169 8430.658,3842.744C8431.123,3842.274 8431.759,3842.01 8432.421,3842.013C8437.553,3842.035 8460.188,3842.132 8464.641,3842.151C8465.062,3842.153 8465.402,3842.495 8465.402,3842.915C8465.402,3847.739 8465.402,3873.888 8465.402,3873.888L8430.309,3874.58L8430.309,3910.662L8470.205,3911.362C8470.205,3911.362 8470.632,3901.093 8470.738,3898.558C8470.751,3898.245 8471.009,3897.998 8471.323,3897.998L8498.312,3897.998C8498.692,3897.998 8499,3898.306 8499,3898.685C8499,3901.109 8499,3909.271 8499,3912.128C8499,3912.768 8498.75,3913.383 8498.303,3913.841C8494.452,3917.795 8475.797,3936.947 8471.681,3941.174Z" style="fill:rgb(132,132,132);"/>
                    </g>
                    <g transform="matrix(2.045612,0,0,2.049523,-16601.035753,-2732.79969)">
                        <path d="M8470.927,3941.199C8470.414,3941.712 8469.718,3942 8468.992,3942C8460.974,3942 8412.79,3942 8400.733,3942C8399.224,3942 8398,3940.779 8398,3939.272C8398,3927.85 8398,3884.125 8398,3876.891C8398,3876.24 8398.259,3875.615 8398.719,3875.155C8403.151,3870.723 8426.697,3847.177 8431.148,3842.726C8431.613,3842.261 8432.244,3842.002 8432.902,3842.005C8437.973,3842.028 8460.255,3842.131 8464.671,3842.151C8465.093,3842.153 8465.433,3842.495 8465.433,3842.915C8465.428,3847.39 8465.406,3870.212 8465.403,3874.036C8465.402,3874.337 8465.158,3874.58 8464.857,3874.58C8460.828,3874.58 8435.678,3874.58 8430.579,3874.58C8430.081,3874.58 8429.678,3874.983 8429.678,3875.48C8429.678,3880.476 8429.678,3904.766 8429.678,3909.763C8429.678,3910.26 8430.081,3910.662 8430.579,3910.662C8435.487,3910.662 8458.951,3910.662 8463.859,3910.662C8464.357,3910.662 8464.76,3910.26 8464.76,3909.763C8464.76,3907.387 8464.76,3900.978 8464.76,3898.763C8464.76,3898.56 8464.841,3898.366 8464.985,3898.222C8465.129,3898.079 8465.324,3897.998 8465.527,3897.998C8470.12,3897.998 8493.945,3897.998 8498.312,3897.998C8498.494,3897.998 8498.669,3898.07 8498.798,3898.199C8498.928,3898.328 8499,3898.503 8499,3898.685L8499,3912.109C8499,3912.76 8498.741,3913.385 8498.281,3913.845C8494.31,3917.816 8475.099,3937.027 8470.927,3941.199Z"/>
                    </g>
                    <g transform="matrix(2.56496,0,0,2.049523,-21616.689424,-2787.496094)">
                        <path d="M8702,3903.456C8702,3903.456 8684.285,3903.396 8680.648,3903.383C8680.476,3903.383 8680.311,3903.468 8680.19,3903.619C8680.068,3903.771 8680,3903.977 8680,3904.192C8680,3908.635 8680,3929.99 8680,3934.427C8680,3934.642 8680.068,3934.848 8680.189,3934.999C8680.31,3935.151 8680.475,3935.236 8680.646,3935.236C8683.658,3935.236 8696.299,3935.236 8699.334,3935.236C8699.507,3935.236 8699.673,3935.149 8699.795,3934.995C8699.916,3934.84 8699.983,3934.631 8699.98,3934.414C8699.943,3931.605 8699.824,3922.559 8699.824,3922.559L8733.041,3922.559C8733.344,3922.559 8733.59,3922.252 8733.59,3921.872C8733.59,3916.479 8733.59,3880.891 8733.59,3871.156C8733.59,3869.799 8732.711,3868.699 8731.627,3868.699C8726.377,3868.698 8712.207,3868.696 8709.094,3868.696C8708.932,3868.696 8708.777,3868.776 8708.662,3868.92C8708.548,3869.063 8708.484,3869.257 8708.484,3869.46C8708.484,3874.551 8708.484,3903.381 8708.484,3903.381L8702,3903.456Z" style="fill:rgb(132,132,132);"/>
                    </g>
                    <g transform="matrix(2.56496,0,0,2.049523,-21608.079181,-2787.496094)">
                        <path d="M8702,3903.381C8702,3903.381 8683.368,3903.388 8679.637,3903.389C8679.28,3903.389 8678.99,3903.751 8678.99,3904.198C8678.99,3908.635 8678.989,3929.99 8678.989,3934.427C8678.989,3934.642 8679.057,3934.848 8679.178,3934.999C8679.3,3935.151 8679.464,3935.236 8679.635,3935.236C8682.878,3935.236 8697.349,3935.236 8700.591,3935.236C8700.763,3935.236 8700.927,3935.151 8701.048,3934.999C8701.169,3934.848 8701.238,3934.642 8701.238,3934.427C8701.238,3932.112 8701.238,3925.485 8701.238,3923.298C8701.237,3922.906 8701.491,3922.589 8701.804,3922.588C8705.493,3922.584 8726.053,3922.56 8729.685,3922.556C8729.988,3922.556 8730.233,3922.248 8730.233,3921.869C8730.233,3916.479 8730.233,3880.889 8730.233,3871.153C8730.233,3870.501 8730.026,3869.876 8729.658,3869.415C8729.29,3868.955 8728.79,3868.696 8728.269,3868.696C8723.492,3868.697 8711.445,3868.699 8708.598,3868.699C8708.261,3868.699 8707.988,3869.041 8707.988,3869.463C8707.988,3874.553 8707.988,3903.381 8707.988,3903.381L8702,3903.381Z"/>
                    </g>
                </g>
                <g transform="matrix(0.813233,-0.581939,0.581939,0.813233,-6613.910542,1488.475198)">
                    <path d="M4597.163,6361.218L4583.941,6379.695L4411.083,6396.243L4386.544,6378.683L4597.163,6361.218Z" style="fill:white;fill-opacity:0.32;"/>
                </g>
                <g transform="matrix(1.174252,-1.104199,0.685042,0.728503,-9551.191304,4769.090783)">
                    <path d="M5009.129,6562.666L5006.571,6567.05L4944.928,6563.063L4941.985,6558.602L5009.129,6562.666Z" style="fill:white;fill-opacity:0.35;"/>
                </g>
                <g transform="matrix(0.813233,-0.581939,0.581939,0.813233,-6795.781855,1581.073607)">
                    <path d="M4597.291,6362.539L4584.692,6380.146L4476.73,6390.073L4490.01,6371.565L4597.291,6362.539Z" style="fill:white;fill-opacity:0.32;"/>
                </g>
                <g transform="matrix(1.174252,-1.104199,0.685042,0.728503,-9732.583623,4860.602301)">
                    <path d="M5009.421,6562.739L5006.724,6567.362L4939.382,6563.063L4941.932,6558.692L5009.421,6562.739Z" style="fill:white;fill-opacity:0.35;"/>
                </g>
            </g>
            <g transform="matrix(0.339387,0,0,0.339387,-3701.840392,-2683.678488)">
                <g transform="matrix(472.60274,0,0,472.60274,14733.943078,20111.925991)">
                </g>
                <text x="13418.69px" y="20111.926px" style="font-family:'Poppins-Medium', 'Poppins';font-weight:500;font-size:472.603px;">Glass</text>
            </g>
        </g>
    </g>
</svg>
