<?xml version="1.0" encoding="UTF-8" standalone="no"?>
<!DOCTYPE svg PUBLIC "-//W3C//DTD SVG 1.1//EN" "http://www.w3.org/Graphics/SVG/1.1/DTD/svg11.dtd">
<svg width="100%" height="100%" viewBox="0 0 1908 1079" version="1.1" xmlns="http://www.w3.org/2000/svg" xmlns:xlink="http://www.w3.org/1999/xlink" xml:space="preserve" xmlns:serif="http://www.serif.com/" style="fill-rule:evenodd;clip-rule:evenodd;stroke-linejoin:round;stroke-miterlimit:2;">
    <g transform="matrix(1,0,0,1,-4153,-6042.005546)">
        <g id="Artboard21" transform="matrix(1,0,0,1,6296.379013,1376.005546)">
            <rect x="-2143.379" y="4666" width="1907.159" height="1079" style="fill:rgb(10,22,40);"/>
            <g transform="matrix(0.339387,0,0,0.339387,-5813.231405,-1570.124861)">
                <g transform="matrix(472.60274,0,0,472.60274,14733.943078,20111.925991)">
                </g>
                <text x="13418.69px" y="20111.926px" style="font-family:'Poppins-Medium', 'Poppins';font-weight:500;font-size:472.603px;fill:white;">Glass</text>
            </g>
            <g>
                <g transform="matrix(1.265764,0,0,1.265764,-2278.044264,-1440.627634)">
                    <g transform="matrix(2.045612,0,0,2.049523,-16612.232251,-2732.79969)">
                        <path d="M8471.685,3941.169C8471.168,3941.7 8470.457,3942 8469.714,3942C8461.583,3942 8413.158,3942 8401.019,3942C8400.288,3942 8399.588,3941.71 8399.072,3941.193C8398.556,3940.677 8398.268,3939.976 8398.27,3939.247C8398.31,3927.713 8398.461,3883.537 8398.485,3876.288C8398.488,3875.641 8398.744,3875.021 8399.199,3874.56C8403.523,3870.187 8426.269,3847.183 8430.654,3842.749C8431.122,3842.275 8431.761,3842.01 8432.427,3842.013C8437.569,3842.035 8460.175,3842.132 8464.636,3842.151C8465.06,3842.153 8465.402,3842.497 8465.402,3842.919C8465.402,3847.755 8465.402,3873.888 8465.402,3873.888L8430.309,3874.58L8430.309,3910.662L8470.205,3911.362C8470.205,3911.362 8470.632,3901.101 8470.738,3898.562C8470.751,3898.247 8471.01,3897.998 8471.326,3897.998C8474.903,3897.998 8494.377,3897.998 8498.308,3897.998C8498.69,3897.998 8499,3898.307 8499,3898.689C8499,3901.116 8499,3909.262 8499,3912.122C8499,3912.766 8498.749,3913.384 8498.299,3913.845C8494.441,3917.807 8475.81,3936.934 8471.685,3941.169Z" style="fill:rgb(148,177,251);"/>
                    </g>
                    <g transform="matrix(2.045612,0,0,2.049523,-16601.035753,-2732.79969)">
                        <path d="M8470.931,3941.195C8470.416,3941.71 8469.716,3942 8468.986,3942C8460.952,3942 8412.828,3942 8400.749,3942C8399.231,3942 8398,3940.772 8398,3939.256C8398,3927.813 8398,3884.145 8398,3876.896C8398,3876.242 8398.26,3875.614 8398.724,3875.15C8403.164,3870.71 8426.684,3847.19 8431.144,3842.73C8431.611,3842.263 8432.246,3842.002 8432.908,3842.005C8437.988,3842.028 8460.242,3842.131 8464.667,3842.151C8465.091,3842.153 8465.433,3842.497 8465.433,3842.92C8465.428,3847.403 8465.406,3870.201 8465.403,3874.033C8465.402,3874.335 8465.157,3874.58 8464.854,3874.58C8460.816,3874.58 8435.694,3874.58 8430.584,3874.58C8430.344,3874.58 8430.113,3874.676 8429.943,3874.845C8429.773,3875.015 8429.678,3875.245 8429.678,3875.485C8429.678,3880.491 8429.678,3904.751 8429.678,3909.758C8429.678,3909.998 8429.773,3910.228 8429.943,3910.397C8430.113,3910.567 8430.344,3910.662 8430.584,3910.662L8463.854,3910.662C8464.355,3910.662 8464.76,3910.257 8464.76,3909.758C8464.76,3907.38 8464.76,3900.985 8464.76,3898.768C8464.76,3898.343 8465.106,3897.998 8465.531,3897.998C8470.134,3897.998 8493.932,3897.998 8498.308,3897.998C8498.492,3897.998 8498.668,3898.071 8498.797,3898.2C8498.927,3898.33 8499,3898.506 8499,3898.689C8499,3901.111 8499,3909.226 8499,3912.104C8499,3912.758 8498.74,3913.386 8498.276,3913.85C8494.298,3917.828 8475.112,3937.014 8470.931,3941.195Z" style="fill:url(#_Linear1);"/>
                    </g>
                    <g transform="matrix(2.56496,0,0,2.049523,-21616.689424,-2787.496094)">
                        <path d="M8702,3903.456C8702,3903.456 8684.297,3903.396 8680.652,3903.383C8680.479,3903.383 8680.313,3903.468 8680.191,3903.621C8680.069,3903.773 8680,3903.981 8680,3904.197C8680,3908.649 8680,3929.976 8680,3934.423C8680,3934.639 8680.068,3934.845 8680.19,3934.998C8680.312,3935.151 8680.478,3935.236 8680.65,3935.236C8683.667,3935.236 8696.29,3935.236 8699.33,3935.236C8699.505,3935.236 8699.672,3935.149 8699.794,3934.993C8699.916,3934.838 8699.983,3934.627 8699.98,3934.409C8699.943,3931.595 8699.824,3922.559 8699.824,3922.559L8733.038,3922.559C8733.184,3922.559 8733.325,3922.486 8733.428,3922.357C8733.532,3922.227 8733.59,3922.052 8733.59,3921.868C8733.59,3916.465 8733.59,3880.923 8733.59,3871.171C8733.59,3869.806 8732.706,3868.699 8731.615,3868.699C8726.359,3868.698 8712.215,3868.696 8709.097,3868.696C8708.935,3868.696 8708.779,3868.777 8708.664,3868.921C8708.548,3869.065 8708.484,3869.26 8708.484,3869.464L8708.484,3903.381L8702,3903.456Z" style="fill:rgb(148,177,251);"/>
                    </g>
                    <g transform="matrix(2.56496,0,0,2.049523,-21608.079181,-2787.496094)">
                        <path d="M8702,3903.381C8702,3903.381 8683.38,3903.388 8679.64,3903.389C8679.281,3903.389 8678.99,3903.753 8678.99,3904.202C8678.99,3908.648 8678.989,3929.976 8678.989,3934.423C8678.989,3934.638 8679.058,3934.845 8679.18,3934.998C8679.301,3935.151 8679.467,3935.236 8679.639,3935.236C8682.888,3935.236 8697.339,3935.236 8700.588,3935.236C8700.76,3935.236 8700.925,3935.151 8701.047,3934.998C8701.169,3934.845 8701.238,3934.639 8701.238,3934.423C8701.238,3932.105 8701.238,3925.492 8701.238,3923.302C8701.237,3922.908 8701.493,3922.589 8701.808,3922.588C8705.505,3922.584 8726.042,3922.56 8729.682,3922.556C8729.986,3922.556 8730.233,3922.246 8730.233,3921.865C8730.233,3916.464 8730.233,3880.921 8730.233,3871.167C8730.233,3870.512 8730.025,3869.883 8729.655,3869.42C8729.284,3868.956 8728.782,3868.696 8728.258,3868.696C8723.475,3868.697 8711.453,3868.699 8708.601,3868.699C8708.262,3868.699 8707.988,3869.043 8707.988,3869.467C8707.988,3874.57 8707.988,3903.381 8707.988,3903.381L8702,3903.381Z" style="fill:url(#_Linear2);"/>
                    </g>
                </g>
                <g transform="matrix(0.813233,-0.581939,0.581939,0.813233,-8725.301555,2605.244935)">
                    <path d="M4597.163,6361.218L4583.941,6379.695L4411.083,6396.243L4386.544,6378.683L4597.163,6361.218Z" style="fill:white;fill-opacity:0.32;"/>
                </g>
                <g transform="matrix(0.813233,-0.581939,0.581939,0.813233,-8905.668111,2692.024388)">
                    <path d="M4597.291,6362.539L4584.692,6380.146L4476.73,6390.073L4490.01,6371.565L4597.291,6362.539Z" style="fill:white;fill-opacity:0.32;"/>
                </g>
                <g transform="matrix(1.174252,-1.104199,0.685042,0.728503,-11662.582318,5885.86052)">
                    <path d="M5009.129,6562.666L5006.571,6567.05L4944.876,6563.153L4941.932,6558.692L5009.129,6562.666Z" style="fill:white;fill-opacity:0.35;"/>
                </g>
                <g transform="matrix(1.174252,-1.104199,0.685042,0.728503,-11842.469879,5971.553083)">
                    <path d="M5009.421,6562.739L5006.724,6567.362L4939.382,6563.063L4941.932,6558.692L5009.421,6562.739Z" style="fill:white;fill-opacity:0.35;"/>
                </g>
            </g>
        </g>
    </g>
    <defs>
        <linearGradient id="_Linear1" x1="0" y1="0" x2="1" y2="0" gradientUnits="userSpaceOnUse" gradientTransform="matrix(101,-93.387244,93.565788,100.807269,8398,3938.527186)"><stop offset="0" style="stop-color:rgb(7,46,171);stop-opacity:1"/><stop offset="1" style="stop-color:rgb(107,47,181);stop-opacity:1"/></linearGradient>
        <linearGradient id="_Linear2" x1="0" y1="0" x2="1" y2="0" gradientUnits="userSpaceOnUse" gradientTransform="matrix(51.243923,-65.510541,52.345982,64.131323,8678.989206,3934.206638)"><stop offset="0" style="stop-color:rgb(7,46,171);stop-opacity:1"/><stop offset="1" style="stop-color:rgb(107,47,181);stop-opacity:1"/></linearGradient>
    </defs>
</svg>
